<svg xmlns="http://www.w3.org/2000/svg" xmlns:xlink="http://www.w3.org/1999/xlink" xmlns:sketch="http://www.bohemiancoding.com/sketch/ns" viewBox="0 0 30 30" version="1.1" x="0px" y="0px"><title>Left Arrow</title><desc>Created with Sketch.</desc><g stroke="none" stroke-width="1" fill="none" fill-rule="evenodd" sketch:type="MSPage"><path d="M27.5,10.4 L4.9,10.4 L11.5,3 C12.1,2.4 12,1.4 11.4,0.9 C10.8,0.3 9.8,0.4 9.3,1 L0.7,10.6 C0.5,10.8 0.3,11 0.1,11.2 C-0.1,11.7 -1.05471187e-15,12.4 0.4,12.8 L9.3,22.7 C9.6,23 10,23.2 10.4,23.2 C10.8,23.2 11.1,23.1 11.4,22.8 C12,22.2 12.1,21.3 11.5,20.7 L4.9,13.3 L27.6,13.3 C28.4,13.3 29.1,12.6 29.1,11.8 C29.1,11 28.3,10.4 27.5,10.4 L27.5,10.4 Z" fill="#000000" sketch:type="MSShapeGroup"/></g></svg>